<?xml version="1.0" encoding="UTF-8"?> <svg xmlns="http://www.w3.org/2000/svg" width="1539" height="1539" viewBox="0 0 1539 1539" fill="none"><path d="M578.233 807.708C610.031 807.709 635.835 833.509 635.835 865.367C635.835 897.224 610.031 923.024 578.233 923.024C546.434 923.024 520.63 897.224 520.63 865.367C520.63 833.509 546.434 807.708 578.233 807.708Z" stroke="#7B00FF" stroke-width="43.8872"></path><path d="M962.246 807.708C994.045 807.709 1019.85 833.509 1019.85 865.367C1019.85 897.224 994.045 923.024 962.246 923.024C930.448 923.024 904.644 897.224 904.644 865.367C904.644 833.509 930.448 807.708 962.246 807.708Z" stroke="#7B00FF" stroke-width="43.8872"></path><path d="M710.567 759.086C697.865 775.461 659.914 744.009 642.526 726.237C605.952 688.853 645.923 686.769 678.27 706.65C686.288 711.579 726.445 738.617 710.567 759.086Z" fill="#7B00FF" stroke="#7B00FF" stroke-width="6.42" stroke-linecap="round"></path><path d="M823.865 759.781C836.568 776.156 874.519 744.705 891.906 726.932C928.48 689.548 888.509 687.464 856.163 707.345C848.144 712.274 807.988 739.312 823.865 759.781Z" fill="#7B00FF" stroke="#7B00FF" stroke-width="6.42" stroke-linecap="round"></path><path d="M684.215 424.773C657.866 400.372 691.347 384.334 702.414 385.037C703.102 385.081 703.767 385.28 704.417 385.511L881.668 448.715C886.161 450.317 889.483 454.161 890.418 458.838L890.576 459.629C892.474 469.125 884.106 477.515 874.55 475.945C842.666 470.708 784.492 463.759 716.751 469.139C639.337 475.288 646.648 459.26 654.663 457.039C655.794 456.726 656.965 456.635 658.107 456.364C672.43 452.966 708.847 447.583 684.215 424.773Z" fill="#FF81BC" stroke="#FF81BC" stroke-width="18.0946" stroke-linecap="round"></path><path d="M894.135 126.751C900.51 118.601 913.589 123.28 913.357 133.627L907.216 407.655C907.051 414.991 899.754 420.01 892.845 417.539L730.162 359.352C723.254 356.881 720.79 348.37 725.31 342.592L894.135 126.751Z" fill="#FAD130" stroke="#FAD130" stroke-width="19.2007" stroke-linejoin="round"></path><path d="M770.759 509.084C690.694 509.084 473.423 522.26 342.858 712.204C179.652 949.635 153.075 1160.44 320.395 1292.19C487.715 1423.95 551.323 1410.22 770.759 1410.22" stroke="#7B00FF" stroke-width="35.6541"></path><path d="M346.972 705.343C303.999 580.909 288.601 312.396 404.574 367.724C522.521 423.994 585.609 480.264 634.983 517.319" stroke="#7B00FF" stroke-width="35.6541"></path><path d="M770.239 509.084C850.304 509.084 1067.58 522.26 1198.14 712.204C1361.35 949.635 1387.92 1160.44 1220.6 1292.19C1053.28 1423.95 989.675 1410.22 770.239 1410.22" stroke="#7B00FF" stroke-width="35.6541"></path><path d="M1194.03 705.343C1237 580.909 1252.4 312.396 1136.42 367.724C1018.48 423.994 955.388 480.264 906.015 517.319" stroke="#7B00FF" stroke-width="35.6541"></path><path d="M449.313 813.136C489.544 773.336 590.85 716.242 674.236 806.274" stroke="#7B00FF" stroke-width="35.6584" stroke-linecap="round"></path><path d="M1088.42 813.136C1048.19 773.336 946.885 716.242 863.5 806.274" stroke="#7B00FF" stroke-width="35.6584" stroke-linecap="round"></path><path d="M776.104 933.988C733.588 957.32 654.591 1013.31 678.729 1050.65C702.867 1087.98 794.848 1066.2 837.821 1050.65C866.165 1042.41 925.87 1033.63 937.939 1064.37" stroke="#7B00FF" stroke-width="35.6584" stroke-linecap="round"></path><path d="M614.91 1175.69C592.866 1184.64 555.393 1206.43 581.845 1221.95C614.91 1241.35 774.223 1156.29 796.768 1175.69C819.312 1195.09 864.401 1250.31 977.123 1232.4C1067.3 1218.07 1034.74 1194.59 1007.18 1184.64" stroke="#7B00FF" stroke-width="35.6584" stroke-linecap="round"></path></svg> 